<mxfile host="app.diagrams.net" agent="Mozilla/5.0 (Windows NT 10.0; Win64; x64) AppleWebKit/537.36 (KHTML, like Gecko) Chrome/126.0.0.0 Safari/537.36 OPR/112.0.0.0" version="24.7.7">
  <diagram id="C5RBs43oDa-KdzZeNtuy" name="Page-1">
    <mxGraphModel dx="284" dy="166" grid="1" gridSize="10" guides="1" tooltips="1" connect="1" arrows="1" fold="1" page="1" pageScale="1" pageWidth="827" pageHeight="1169" math="0" shadow="0">
      <root>
        <mxCell id="WIyWlLk6GJQsqaUBKTNV-0" />
        <mxCell id="WIyWlLk6GJQsqaUBKTNV-1" parent="WIyWlLk6GJQsqaUBKTNV-0" />
        <mxCell id="HAu7uKh8v-kjlOPrP6Ng-0" value="+-------------------+&#xa;|      Dragao       |&#xa;+-------------------+&#xa;| - nome: str       |&#xa;| - imagem_url: str |&#xa;| - descricao: str  |&#xa;| - idade: int      |&#xa;| - peso: int       |&#xa;| - montador: str   |&#xa;| - casa: str       |&#xa;+-------------------+&#xa;| + __init__()      |&#xa;| + get_nome()      |&#xa;| + get_imagem_url()|&#xa;| + get_descricao() |&#xa;| + get_idade()     |&#xa;| + get_peso()      |&#xa;| + get_montador()  |&#xa;| + get_casa()      |&#xa;+-------------------+&#xa;&#xa;&#xa;          ^&#xa;          |&#xa;          |&#xa;+-------------------------+&#xa;|      ColecaoDragoes    |&#xa;+-------------------------+&#xa;| - dragoes: List[Dragao]|&#xa;+-------------------------+&#xa;| + __init__()           |&#xa;| + adicionar_dragao()   |&#xa;| + buscar_dragao()      |&#xa;+-------------------------+&#xa;&#xa;&#xa;          ^&#xa;          |&#xa;          |&#xa;+-----------------+&#xa;|     Buscador    |&#xa;+-----------------+&#xa;| - colecao: ColecaoDragoes |&#xa;+-----------------+&#xa;| + __init__()    |&#xa;| + busca()       |&#xa;+-----------------+&#xa;&#xa;&#xa;          ^&#xa;          |&#xa;          |&#xa;+-----------------------+&#xa;|    MenuPrincipal      |&#xa;+-----------------------+&#xa;| - colecao: ColecaoDragoes   |&#xa;| - root: Tk                |&#xa;| - entry_nome: Entry       |&#xa;| - imagem_label: Label     |&#xa;| - info_frame: Frame       |&#xa;| - nome_label: Label       |&#xa;| - descricao_label: Label  |&#xa;| - idade_label: Label      |&#xa;| - peso_label: Label       |&#xa;| - montador_label: Label   |&#xa;| - casa_label: Label       |&#xa;+-----------------------+&#xa;| + __init__()          |&#xa;| + criar_interface()   |&#xa;| + limpar_campo()      |&#xa;| + redimensionar_fundo()|&#xa;| + pesquisar_dragao()   |&#xa;| + atualizar_interface() |&#xa;+-----------------------+" style="text;whiteSpace=wrap;" vertex="1" parent="WIyWlLk6GJQsqaUBKTNV-1">
          <mxGeometry x="170" y="150" width="600" height="1140" as="geometry" />
        </mxCell>
      </root>
    </mxGraphModel>
  </diagram>
</mxfile>
